<svg xmlns="http://www.w3.org/2000/svg" xmlns:xlink="http://www.w3.org/1999/xlink" width="500" zoomAndPan="magnify" viewBox="0 0 375 374.999991" height="500" preserveAspectRatio="xMidYMid meet" version="1.0"><defs><clipPath id="fa068fd063"><path d="M 58.59375 0 L 316.40625 0 C 348.765625 0 375 26.234375 375 58.59375 L 375 316.40625 C 375 348.765625 348.765625 375 316.40625 375 L 58.59375 375 C 26.234375 375 0 348.765625 0 316.40625 L 0 58.59375 C 0 26.234375 26.234375 0 58.59375 0 Z M 58.59375 0 " clip-rule="nonzero"/></clipPath><clipPath id="bdd0d9756c"><path d="M 0 0 L 375 0 L 375 375 L 0 375 Z M 0 0 " clip-rule="nonzero"/></clipPath><clipPath id="04f6374c6c"><path d="M 58.59375 0 L 316.40625 0 C 348.765625 0 375 26.234375 375 58.59375 L 375 316.40625 C 375 348.765625 348.765625 375 316.40625 375 L 58.59375 375 C 26.234375 375 0 348.765625 0 316.40625 L 0 58.59375 C 0 26.234375 26.234375 0 58.59375 0 Z M 58.59375 0 " clip-rule="nonzero"/></clipPath><linearGradient x1="0" gradientTransform="matrix(1.464844, 0, 0, 1.464844, 0.0000045, 0)" y1="0" x2="256" gradientUnits="userSpaceOnUse" y2="256" id="1e6d745c0a"><stop stop-opacity="1" stop-color="rgb(97.648621%, 98.039246%, 98.429871%)" offset="0"/><stop stop-opacity="1" stop-color="rgb(97.795105%, 98.161316%, 98.527527%)" offset="0.125"/><stop stop-opacity="1" stop-color="rgb(98.0896%, 98.406982%, 98.722839%)" offset="0.25"/><stop stop-opacity="1" stop-color="rgb(98.382568%, 98.651123%, 98.919678%)" offset="0.375"/><stop stop-opacity="1" stop-color="rgb(98.677063%, 98.89679%, 99.11499%)" offset="0.5"/><stop stop-opacity="1" stop-color="rgb(98.970032%, 99.14093%, 99.311829%)" offset="0.625"/><stop stop-opacity="1" stop-color="rgb(99.264526%, 99.386597%, 99.508667%)" offset="0.75"/><stop stop-opacity="1" stop-color="rgb(99.557495%, 99.630737%, 99.703979%)" offset="0.875"/><stop stop-opacity="1" stop-color="rgb(99.85199%, 99.876404%, 99.900818%)" offset="1"/></linearGradient><clipPath id="9c533a157f"><rect x="0" width="375" y="0" height="375"/></clipPath><clipPath id="4dd4695425"><path d="M 65.144531 63 L 309.644531 63 L 309.644531 311.96875 L 65.144531 311.96875 Z M 65.144531 63 " clip-rule="nonzero"/></clipPath></defs><g clip-path="url(#fa068fd063)"><g transform="matrix(1, 0, 0, 1, 0, 0)"><g clip-path="url(#9c533a157f)"><g clip-path="url(#bdd0d9756c)"><g clip-path="url(#04f6374c6c)"><rect x="-82.5" fill="url(#1e6d745c0a)" width="540" height="539.999987" y="-82.499998"/></g></g></g></g></g><g clip-path="url(#4dd4695425)"><path fill="#0043ff" d="M 309.53125 311.894531 C 305.417969 307.984375 301.761719 304.660156 298.273438 301.164062 C 282.097656 284.949219 265.9375 268.714844 249.859375 252.40625 C 247.660156 250.171875 246.273438 250.285156 244.097656 252.496094 C 228.683594 268.183594 213.082031 283.679688 197.679688 299.375 C 190.949219 306.230469 182.867188 308.960938 173.453125 308.90625 C 140.117188 308.714844 106.785156 308.652344 73.449219 308.542969 C 71.449219 308.535156 69.445312 308.542969 66.542969 308.542969 C 67.855469 306.871094 68.65625 305.597656 69.695312 304.558594 C 103.988281 270.214844 138.3125 235.898438 172.609375 201.554688 C 177.0625 197.097656 181.375 192.511719 185.753906 187.980469 C 185.648438 187.6875 185.542969 187.390625 185.433594 187.097656 C 179.964844 187.097656 174.488281 187.101562 169.019531 187.097656 C 138.640625 187.058594 108.261719 187.082031 77.878906 186.953125 C 69.070312 186.90625 65.164062 182.734375 65.160156 173.835938 C 65.132812 138.433594 65.152344 103.035156 65.152344 67.636719 C 65.152344 66.167969 65.152344 64.707031 65.152344 63.039062 C 85.699219 83.589844 106.101562 103.996094 126.601562 124.5 C 127.828125 123.546875 128.484375 123.148438 129.003906 122.625 C 145.65625 105.921875 162.304688 89.203125 178.945312 72.480469 C 183.542969 67.855469 188.949219 65.21875 195.597656 65.230469 C 231.769531 65.277344 267.941406 65.269531 304.113281 65.296875 C 305.421875 65.296875 306.734375 65.511719 308.042969 65.628906 C 308.292969 66.027344 308.542969 66.421875 308.796875 66.824219 C 268.910156 106.632812 229.023438 146.441406 188.765625 186.617188 C 190.335938 186.765625 191.53125 186.976562 192.726562 186.976562 C 227.535156 186.976562 262.339844 186.941406 297.144531 186.945312 C 305.792969 186.945312 309.347656 190 309.519531 198.691406 C 309.796875 212.863281 309.523438 227.042969 309.519531 241.222656 C 309.507812 263.574219 309.527344 285.925781 309.53125 308.273438 C 309.53125 309.277344 309.53125 310.277344 309.53125 311.894531 Z M 309.53125 311.894531 " fill-opacity="1" fill-rule="nonzero"/></g></svg>